<svg width="502" height="30" fill="none" xmlns="http://www.w3.org/2000/svg"><g clip-path="url(#a)" fill="#fff"><path d="M264.027 21.223V5.76L256.469.27h-37.026V30h7.558V7.14h29.468v7.21h-23.466L254.546 30h11.685l-12.082-8.776h9.878zm-219.443 0V5.76L37.026.27H0V30h7.558V7.14h29.468v7.21H13.56L35.093 30h11.695l-12.081-8.776h9.877zM268.521 30h10.013l3.402-3.77h25.835l3.402 3.77h10.013L294.858 0l-26.337 30zm18.47-10.023 7.867-8.94 7.868 8.94h-15.735zM116.878.27v29.729h37.471l7.558-5.49V5.76L154.349.27h-37.471zm37.471 22.857h-29.913V7.141h29.913v15.986zM65.722.27v29.729h37.471l7.558-5.49V5.76L103.193.27H65.722zm37.471 22.857H73.28V7.141h29.913v15.986zM163.792 30h10.013l3.402-3.77h25.834l3.402 3.77h10.013L190.129 0l-26.337 30zm18.47-10.023 7.867-8.94 7.867 8.94h-15.734zM59.101.27h-7.654v29.729H59.1V.269zm323.747 20.953h9.878V5.76L385.168.27h-37.027V30h7.558V7.14h29.469v7.21h-23.467L383.235 30h11.694l-12.081-8.776zM439.32.27h-37.471v29.729h37.471l7.558-5.49V5.76L439.32.27zm0 6.871v15.986h-29.913V7.141h29.913zm61.711 0V.27H463.56l-7.558 5.49v24.239h37.471l7.558-5.49V11.896H463.56V7.132h37.471v.01zm-7.558 11.231v4.765H463.56v-4.765h29.913z"/></g><defs><clipPath id="a"><path fill="#fff" d="M0 0h501.031v30H0z"/></clipPath></defs></svg>
