<?xml version="1.0" standalone="no"?>
<!DOCTYPE svg PUBLIC "-//W3C//DTD SVG 20010904//EN"
 "http://www.w3.org/TR/2001/REC-SVG-20010904/DTD/svg10.dtd">
<svg version="1.0" xmlns="http://www.w3.org/2000/svg"
 width="453.000000pt" height="144.000000pt" viewBox="0 0 453.000000 144.000000"
 preserveAspectRatio="xMidYMid meet">

<g transform="translate(0.000000,144.000000) scale(0.100000,-0.100000)"
fill="#000000" stroke="none">
<path d="M1384 1398 c-35 -67 -114 -228 -114 -233 0 -3 7 -5 15 -5 21 0 19 -7
-19 -53 -35 -43 -86 -155 -86 -189 0 -11 7 -18 20 -18 18 0 16 -6 -20 -55 -23
-32 -52 -88 -65 -131 -30 -89 -29 -84 -9 -84 12 0 15 -7 12 -25 l-5 -25 549 0
550 0 -6 24 c-4 17 -1 28 10 34 15 8 14 16 -7 83 -13 41 -38 95 -56 120 -37
53 -39 59 -17 59 12 0 14 7 9 33 -14 61 -47 132 -85 183 -36 48 -37 51 -14 46
13 -2 24 -2 24 2 0 16 -135 265 -140 259 -21 -25 -139 -192 -149 -210 -10 -20
-9 -23 6 -23 13 0 9 -9 -18 -37 -30 -32 -89 -130 -89 -148 0 -3 9 -5 20 -5 19
0 19 -3 -8 -50 -15 -27 -29 -50 -32 -50 -3 0 -11 14 -17 30 -9 25 -9 30 3 30
8 0 14 2 14 5 0 16 -54 109 -93 161 -32 42 -41 60 -31 62 8 2 14 7 14 11 0 4
-33 58 -74 120 l-75 113 -17 -34z"/>
<path d="M9 1406 c-2 -2 -3 -63 -1 -135 l3 -131 80 0 79 0 0 -275 0 -275 145
0 145 0 0 275 0 275 85 0 85 0 0 135 0 135 -308 0 c-170 0 -311 -2 -313 -4z"/>
<path d="M730 1000 l0 -411 148 3 147 3 3 408 2 407 -150 0 -150 0 0 -410z"/>
<path d="M2312 1003 l3 -408 255 1 c235 0 259 2 301 21 108 48 153 140 129
259 -13 61 -46 102 -102 125 l-29 12 37 30 c20 17 43 45 50 63 32 77 3 199
-59 245 -64 48 -88 52 -345 56 l-242 5 2 -409z m379 186 c26 -41 -11 -89 -66
-89 l-35 0 0 56 0 57 46 -6 c26 -2 50 -11 55 -18z m19 -289 c50 -50 -3 -110
-97 -110 -22 0 -23 4 -23 65 l0 65 50 0 c37 0 55 -5 70 -20z"/>
<path d="M3092 1003 l3 -408 278 -3 278 -2 -3 112 -3 113 -120 2 c-66 2 -126
3 -132 3 -8 0 -13 15 -13 40 l0 40 120 0 121 0 -3 103 -3 102 -118 3 -118 3 3
37 3 37 128 3 127 3 0 109 0 110 -275 0 -275 0 2 -407z"/>
<path d="M3762 1004 l3 -409 142 -3 142 -3 3 133 3 133 52 -101 c29 -56 60
-115 70 -132 l18 -32 163 0 163 0 -16 30 c-8 16 -33 55 -55 87 -22 32 -45 65
-50 73 -5 8 -27 42 -49 74 -39 58 -43 76 -17 76 7 0 31 13 53 29 66 48 90 155
61 269 -15 60 -85 132 -153 157 -42 15 -91 19 -293 23 l-242 4 2 -408z m393
171 c56 -55 16 -135 -66 -135 l-39 0 0 80 0 80 40 0 c30 0 47 -7 65 -25z"/>
<path d="M202 454 c-58 -22 -99 -65 -117 -126 -41 -141 16 -276 130 -308 65
-18 163 -8 208 21 32 21 88 112 76 123 -10 9 -114 35 -117 28 -1 -4 -11 -22
-22 -40 -17 -28 -25 -32 -64 -32 -36 0 -48 5 -65 26 -39 50 -22 190 24 208 9
3 32 6 51 6 31 0 41 -8 69 -58 5 -8 108 24 112 35 8 20 -35 80 -74 103 -49 29
-152 36 -211 14z"/>
<path d="M685 455 c-118 -45 -170 -197 -111 -327 36 -83 100 -118 210 -118
117 0 203 70 217 176 23 169 -54 272 -211 280 -42 3 -79 -2 -105 -11z m154
-119 c40 -43 40 -157 0 -197 -27 -27 -99 -26 -125 2 -15 17 -19 37 -19 101 0
72 2 82 24 99 34 27 92 25 120 -5z"/>
<path d="M2478 461 c-49 -16 -88 -45 -116 -86 -25 -37 -27 -48 -27 -135 0 -88
2 -98 29 -138 16 -23 44 -52 63 -63 43 -27 154 -37 206 -20 61 20 117 83 117
130 0 15 -10 23 -42 31 -24 6 -51 13 -60 16 -13 4 -18 0 -18 -13 0 -39 -29
-63 -75 -63 -62 0 -85 31 -85 114 0 87 25 126 80 126 38 0 72 -20 81 -49 5
-15 111 10 117 27 7 22 -37 78 -79 101 -45 26 -144 37 -191 22z"/>
<path d="M3640 457 c-61 -21 -96 -48 -121 -94 -20 -36 -24 -58 -24 -126 0 -69
4 -89 25 -127 53 -94 205 -131 316 -75 150 75 153 332 4 405 -54 27 -150 35
-200 17z m141 -123 c20 -22 24 -35 24 -93 0 -95 -19 -121 -85 -121 -46 0 -52
3 -70 32 -35 57 -21 184 22 201 36 15 85 6 109 -19z"/>
<path d="M1080 240 l0 -220 175 0 175 0 0 55 0 55 -105 0 -105 0 0 165 0 165
-70 0 -70 0 0 -220z"/>
<path d="M1490 240 l0 -220 175 0 175 0 0 55 0 55 -105 0 -105 0 0 165 0 165
-70 0 -70 0 0 -220z"/>
<path d="M1900 240 l0 -220 185 0 185 0 0 50 0 50 -115 0 -115 0 0 40 0 40
105 0 105 0 0 50 0 50 -105 0 -105 0 0 30 0 30 110 0 110 0 0 50 0 50 -180 0
-180 0 0 -220z"/>
<path d="M2792 408 l3 -53 68 -3 67 -3 0 -164 0 -165 70 0 70 0 0 168 0 167
67 0 68 0 3 53 3 52 -211 0 -211 0 3 -52z"/>
<path d="M3270 240 l0 -220 70 0 70 0 0 220 0 220 -70 0 -70 0 0 -220z"/>
<path d="M4020 240 l0 -220 65 0 64 0 3 116 3 116 79 -116 78 -116 64 0 64 0
0 220 0 220 -60 0 -60 0 -1 -102 c-1 -57 -1 -109 0 -115 3 -26 -25 0 -61 55
-21 31 -53 81 -73 110 l-35 52 -65 0 -65 0 0 -220z"/>
</g>
</svg>
